<?xml version="1.0" standalone="no"?>
<!DOCTYPE svg PUBLIC "-//W3C//DTD SVG 20010904//EN"
 "http://www.w3.org/TR/2001/REC-SVG-20010904/DTD/svg10.dtd">
<svg version="1.0" xmlns="http://www.w3.org/2000/svg"
 width="700.000000pt" height="700.000000pt" viewBox="0 0 700.000000 700.000000"
 preserveAspectRatio="xMidYMid meet">
<metadata>
Created by potrace 1.14, written by Peter Selinger 2001-2017
</metadata>
<g transform="translate(0.000000,700.000000) scale(0.100000,-0.100000)"
fill="#000000" stroke="none">
<path d="M1779 6339 c-48 -8 -74 -24 -106 -66 l-28 -36 -5 -220 -5 -220 -125
-2 c-138 -2 -160 -9 -185 -61 -20 -42 -19 -63 5 -102 27 -45 57 -53 190 -55
l115 -2 3 -436 2 -435 -123 -1 c-136 0 -157 -7 -187 -56 -25 -41 -25 -60 2
-108 26 -47 46 -53 193 -53 l110 -1 3 -438 2 -437 -119 0 c-134 0 -162 -8
-191 -55 -20 -33 -21 -62 -2 -107 19 -47 57 -58 192 -58 l120 0 0 -437 0 -438
-130 0 -131 -1 -32 -32 c-27 -27 -32 -39 -31 -78 0 -40 5 -51 32 -75 35 -31
34 -31 190 -32 l102 0 0 -437 0 -436 -127 -2 c-146 -2 -168 -11 -192 -78 -12
-35 -12 -44 3 -74 26 -57 46 -64 186 -65 l125 -1 5 -221 c5 -204 7 -224 26
-249 29 -39 65 -64 105 -72 19 -4 880 -7 1915 -7 l1881 0 41 28 c23 15 50 44
61 65 19 37 19 93 19 2747 0 2899 3 2745 -46 2798 -49 54 81 51 -1953 51
-1032 1 -1891 -2 -1910 -5z"/>
</g>
</svg>
